<svg width="20" height="24" viewBox="0 0 20 24" fill="none" xmlns="http://www.w3.org/2000/svg">
<path d="M10.0001 0.900391C12.983 0.900391 15.4081 3.32269 15.4083 6.30371C15.4083 9.28474 12.9833 11.7158 10.0001 11.7158C7.01714 11.7158 4.59297 9.2926 4.59286 6.31152C4.59286 3.32323 7.01699 0.900445 10.0001 0.900391ZM10.0001 2.54102C7.92093 2.54107 6.23469 4.23313 6.23447 6.30371C6.23447 8.37436 7.92789 10.0673 10.0001 10.0674C12.0723 10.0674 13.7657 8.37439 13.7657 6.30371C13.7655 4.2331 12.0793 2.54102 10.0001 2.54102Z" fill="#A0A3B1" stroke="#98A1BD" stroke-width="0.2"/>
<path d="M15.0235 24.0001H4.97652C2.37695 24.0001 0.269196 21.6235 0.269196 18.6924C0.269196 15.7612 2.38574 13.3846 4.97652 13.3846H15.0235C17.6231 13.3846 19.7308 15.7711 19.7308 18.6924C19.7308 21.6136 17.6231 24.0001 15.0235 24.0001ZM4.97652 15.3651C3.35179 15.3651 2.02566 16.8604 2.02566 18.6924C2.02566 20.5243 3.35179 22.0196 4.97652 22.0196H15.0235C16.6482 22.0196 17.9744 20.5243 17.9744 18.6924C17.9744 16.8604 16.6482 15.3651 15.0235 15.3651H4.97652Z" fill="#A0A3B1"/>
</svg>
